<svg xmlns="http://www.w3.org/2000/svg" width="20" height="20" viewBox="0 0 16 16" fill="#6647FF"><path d="M15.5077 0H1.18854C0.749937 0 0.530285 0.530285 0.840422 0.840422L4.77888 4.77888C4.87121 4.87121 4.99643 4.92308 5.127 4.92308H10.5846C10.8565 4.92308 11.0769 5.14349 11.0769 5.41538V10.873C11.0769 11.0036 11.1288 11.1288 11.2211 11.2211L15.1596 15.1596C15.4697 15.4697 16 15.2501 16 14.8115V0.492308C16 0.220414 15.7796 0 15.5077 0Z" fill="#6647FF"></path><path d="M8.61539 11.6923C8.61539 14.0714 6.68677 16 4.30769 16C1.92862 16 0 14.0714 0 11.6923C0 9.31324 1.92862 7.38462 4.30769 7.38462C6.68677 7.38462 8.61539 9.31324 8.61539 11.6923Z" fill="#6647FF"></path></svg>